<svg width="20" height="20" viewBox="0 0 20 20" fill="none" xmlns="http://www.w3.org/2000/svg">
<g clip-path="url(#clip0_427_8502)">
<path d="M6.1863 12.663H0C1.26785 13.827 2.94857 14.4966 4.69211 14.4966H6.35761C6.1534 13.9049 6.07684 13.3191 6.1863 12.663Z" fill="#F77B4D"/>
<path d="M13.865 13.2042C13.865 13.6573 13.7866 14.0924 13.6426 14.4966H15.3081C17.0516 14.4966 18.7323 13.827 20.0002 12.663H13.8139C13.8471 12.8776 13.865 13.0598 13.865 13.2042Z" fill="#F77B4D"/>
<path d="M4.69211 11.4923H6.43214C6.56755 10.944 6.74198 10.3192 6.93827 9.65857H0C1.26785 10.8226 2.94857 11.4923 4.69211 11.4923Z" fill="#F77B4D"/>
<path d="M13.5677 11.4923H15.3077C17.0512 11.4923 18.7319 10.8226 19.9998 9.65857H13.0615C13.2578 10.3192 13.4322 10.944 13.5677 11.4923Z" fill="#F77B4D"/>
<path d="M0 6.65417C2.31761 8.73979 4.42273 8.49633 7.2965 8.48786C7.4881 7.87715 7.68985 7.25669 7.89003 6.65417H0Z" fill="#F77B4D"/>
<path d="M19.9999 6.65417H12.1099C12.3101 7.25669 12.5118 7.87715 12.7034 8.48786C15.5783 8.49707 17.6855 8.73792 19.9999 6.65417Z" fill="#F77B4D"/>
<path d="M12.5094 12.0776C11.858 9.45198 10.8956 6.69287 9.9998 4.10327C9.42765 5.73142 8.85358 7.43021 8.34055 9.07322C8.02189 10.1048 7.71521 11.1232 7.49024 12.0776C7.40326 12.4531 7.31031 12.8877 7.30566 13.2042C7.30566 13.6721 7.42546 14.1126 7.63619 14.4966C8.50125 16.0814 10.6737 16.3823 11.9299 15.082C12.4165 14.5797 12.6921 13.9243 12.6939 13.2042C12.6877 12.8867 12.5969 12.4537 12.5094 12.0776ZM9.41446 11.6897H10.5851V12.8604H9.41446C9.41446 12.7293 9.41446 11.6897 9.41446 11.6897Z" fill="#F77B4D"/>
</g>
<defs>
<clipPath id="clip0_427_8502">
<rect width="20" height="20" fill="white"/>
</clipPath>
</defs>
</svg>
