<svg width="36" height="36" viewBox="0 0 36 36" fill="none" xmlns="http://www.w3.org/2000/svg">
<path d="M6.69784 2.22561C6.38003 2.54601 6.16283 2.91942 6.03936 3.35045C5.91818 3.78148 5.91131 4.18946 6.01649 4.5744C6.03478 4.62972 6.07595 4.73805 6.14225 4.90171C6.19026 4.99621 6.20397 5.07227 6.18797 5.12759C6.07593 5.15756 5.95475 5.10915 5.829 4.98238C5.53634 4.68734 5.41746 4.19638 5.47005 3.50949C5.52492 2.82261 5.77185 2.25788 6.21313 1.81072C6.28629 1.73926 6.39146 1.68855 6.53093 1.66089C6.6704 1.63323 6.74813 1.61479 6.75956 1.60327C6.93333 1.42809 6.89218 1.21142 6.6361 0.950953C6.61095 0.927903 6.45548 0.849536 6.1674 0.715847C6.17426 0.697407 6.18112 0.685881 6.18569 0.678966C6.22227 0.642086 6.28171 0.625954 6.36402 0.623649C6.59266 0.600599 6.79158 0.676659 6.96306 0.849533C7.01793 0.904853 7.07967 0.98092 7.15283 1.07542C7.22371 1.17223 7.27172 1.23447 7.29459 1.25752C7.36089 1.32437 7.42719 1.32206 7.49121 1.25752C7.66955 1.07543 7.59867 0.824181 7.27629 0.499177C7.04994 0.270983 6.73442 0.185695 6.33201 0.250235C5.92732 0.312469 5.5798 0.492262 5.28485 0.787301C4.83672 1.23908 4.63094 1.92366 4.66753 2.83874C4.70868 3.84602 5.05164 4.74036 5.69869 5.52405C5.55922 5.55402 5.47004 5.5471 5.42888 5.50562C5.20253 5.27742 4.9739 4.95242 4.74754 4.5283C4.46632 4.00507 4.28799 3.49797 4.21025 3.00931C4.13937 2.57597 4.14851 2.19335 4.23768 1.86143C4.25598 1.79458 4.31771 1.63323 4.42517 1.38199C4.51434 1.18376 4.56235 1.0201 4.56921 0.893329C4.57379 0.803434 4.53948 0.651307 4.46175 0.441553C4.38858 0.261763 4.34515 0.160342 4.32686 0.144207C4.20111 0.0174325 4.04106 0.0543126 3.84214 0.252542C3.60207 0.494566 3.44431 0.874892 3.36657 1.40043C3.3117 1.18837 3.31856 0.907163 3.38487 0.552195C3.43288 0.250241 3.43745 0.077362 3.39629 0.0358722C3.35514 -0.00561765 3.31855 -0.0102245 3.28883 0.0174353C3.28197 0.0243503 3.26825 0.0520068 3.2431 0.100412C2.85898 0.847228 3.03047 1.8937 3.75297 3.23751C3.64551 3.16375 3.57005 3.10612 3.53118 3.06463C3.43516 2.96782 3.24539 2.6336 2.95959 2.05735C2.67607 1.48111 2.43601 1.09386 2.23938 0.895636C2.1022 0.757336 1.98102 0.697407 1.88042 0.715847C1.82554 0.734287 1.77295 0.750417 1.72037 0.768857C1.64263 0.704317 1.55804 0.635171 1.46887 0.570631C1.33169 0.478432 1.18764 0.510698 1.03903 0.660522C0.96129 0.738892 0.922424 0.849537 0.926996 0.990141C0.929283 1.13305 0.968152 1.23677 1.04132 1.31053C1.04589 1.31745 1.07332 1.33819 1.12133 1.37507C1.13963 1.39121 1.1442 1.42348 1.13963 1.46497L1.02302 1.50876C0.970434 1.59866 1.06188 1.76692 1.30195 2.00664C1.46886 2.17491 2.09991 2.6359 3.19509 3.38964C3.21796 3.46109 3.23167 3.50949 3.23167 3.53484C1.50316 2.70966 0.47657 2.46072 0.14733 2.79264C0.0810251 2.85948 0.0375814 2.94016 0.017004 3.03236C-0.00357342 3.12456 -0.0058527 3.18219 0.0101519 3.20063C0.039875 3.23059 0.103884 3.24442 0.199912 3.24442C0.581739 3.06463 0.881267 2.98626 1.09619 3.00931L1.1602 3.08998C1.01158 3.15683 0.849251 3.21676 0.675486 3.27208C0.542875 3.30665 0.471996 3.33201 0.460565 3.34353C0.375968 3.42882 0.332525 3.53946 0.330238 3.67315C0.327952 3.80914 0.364532 3.91517 0.442269 3.99354C0.638899 4.19408 0.846965 4.27475 1.06189 4.23787C1.24708 4.18486 1.43228 4.12954 1.61748 4.07422C1.91699 4.02581 2.32855 4.06039 2.85442 4.18255C3.48318 4.32085 4.03647 4.53982 4.51433 4.84178L4.80928 5.13912C4.85272 5.18061 4.88931 5.26359 4.9236 5.38345L4.83443 5.42033C4.01133 4.91323 3.2614 4.64586 2.58463 4.61359C1.90786 4.58593 1.36369 4.77724 0.952144 5.19213C0.677777 5.46873 0.538305 5.77991 0.536019 6.11874C0.533732 6.45988 0.661776 6.76184 0.926996 7.02691C1.17164 7.27354 1.38884 7.30351 1.57403 7.11911L1.60147 7.09145C1.53516 7.0246 1.462 6.96467 1.37741 6.90935C1.29281 6.85634 1.24708 6.82637 1.24251 6.81946C1.05731 6.63275 0.956719 6.42531 0.940715 6.19942C0.924709 5.97353 0.993291 5.78452 1.14419 5.63239C1.18077 5.59781 1.20593 5.57476 1.22422 5.57015C1.16478 6.01732 1.25623 6.36307 1.50316 6.60971L1.56718 6.67425C1.73638 6.77106 1.85755 6.78027 1.93529 6.70191C1.95358 6.68347 1.99473 6.60279 2.06104 6.45758C2.12734 6.31467 2.20279 6.19942 2.2851 6.11644C2.31025 6.09108 2.34912 6.06342 2.40171 6.03576L2.41086 6.02655C2.44744 5.98967 2.47945 5.93895 2.50917 5.87211C2.5389 5.80526 2.55947 5.76608 2.5709 5.75455C2.76295 5.56093 3.09449 5.47565 3.56777 5.49179C4.11193 5.51023 4.59892 5.69462 5.02877 6.04267L4.95561 6.16945C4.42517 5.99427 3.95417 5.97353 3.54719 6.10491C3.2088 6.22016 2.82926 6.48523 2.41771 6.90013C2.05875 7.26201 1.8827 7.69535 1.88956 8.20245C1.89642 8.70955 2.04961 9.11523 2.35599 9.42179C2.61207 9.67995 2.95273 9.7952 3.378 9.76754C3.72324 9.74218 3.96102 9.66843 4.08677 9.54165C4.12336 9.50478 4.14622 9.45176 4.15765 9.3803L4.10278 9.32498C4.04333 9.26505 3.95417 9.25814 3.83528 9.30654C3.29112 9.50708 2.90244 9.48864 2.66922 9.25122C2.46574 9.04608 2.38342 8.86629 2.41771 8.70955C2.81326 8.88934 3.10134 8.98845 3.28654 9.0069C3.52661 9.04377 3.72096 8.98615 3.86958 8.83632C4.09822 8.60582 4.0319 8.31078 3.67294 7.95121C3.2431 7.51556 3.24996 7.07531 3.70037 6.62123C3.82613 6.49676 4.03876 6.41378 4.34514 6.37921C4.64923 6.34463 4.84815 6.36998 4.93732 6.45988C4.98533 6.50828 4.99905 6.61432 4.98076 6.77567C4.95104 7.03613 4.93731 7.209 4.94417 7.3012C4.97618 7.89589 5.18424 8.39146 5.57293 8.78331C5.80157 9.01151 6.05307 9.17055 6.32972 9.25814C6.60866 9.34573 6.80759 9.34573 6.92648 9.26275C6.99736 9.21434 7.12768 9.17516 7.31288 9.1452C7.49808 9.11523 7.60325 9.08757 7.6284 9.06221C7.71757 8.97232 7.71528 8.87782 7.61925 8.78331C7.58267 8.74643 7.50722 8.6888 7.39061 8.60813C7.274 8.52745 7.18255 8.4537 7.11624 8.38685C6.93104 8.20015 6.84188 7.97195 6.84874 7.69996C6.85331 7.46485 6.91733 7.28737 7.03622 7.1652C7.28087 6.91857 7.53923 6.78027 7.8136 6.75492C8.08568 6.72726 8.31888 6.81255 8.51551 7.01308C8.56352 7.06149 8.61383 7.11911 8.66413 7.19056C8.71443 7.25971 8.75102 7.30351 8.76702 7.31964C8.8882 7.4395 9.00251 7.44411 9.11683 7.32886C9.21286 7.23205 9.23116 7.00847 9.17172 6.66042C9.09398 6.24321 8.90878 5.88824 8.61384 5.59321C8.11083 5.08611 7.38832 4.88788 6.44633 4.99621C6.41889 4.79107 6.40061 4.58362 6.38232 4.37386C6.36403 4.16411 6.39146 3.9751 6.46234 3.80453C6.52864 3.68928 6.60866 3.58556 6.70469 3.48875C6.84874 3.34353 7.03623 3.26977 7.26944 3.26286C7.50265 3.25594 7.71299 3.35045 7.90505 3.54176C7.97821 3.61552 8.05366 3.68928 8.1314 3.76765C8.20228 3.85063 8.24115 3.89673 8.24801 3.90364C8.31431 3.97049 8.42635 3.97741 8.58182 3.9267C8.74187 3.87368 8.88591 3.78378 9.01852 3.65009C9.32261 3.34353 9.27002 2.89176 8.85847 2.29477L8.96594 2.32934C9.02538 2.36622 9.06425 2.39388 9.08254 2.41002C9.35234 2.682 9.48265 2.98165 9.47351 3.31126C9.46436 3.63857 9.33862 3.92439 9.10084 4.16411C9.05282 4.21251 9.00481 4.24939 8.9568 4.27244C8.90878 4.40613 8.89964 4.48681 8.92936 4.51677C9.01396 4.60206 9.174 4.52369 9.41407 4.28167C9.65872 4.03503 9.77761 3.68467 9.76846 3.22828C9.75932 2.7742 9.62899 2.41924 9.37748 2.16569C8.50408 1.28749 7.61239 1.30362 6.70469 2.221L6.69784 2.22561ZM8.58182 6.27548C7.37918 5.73842 6.54007 5.71306 6.05993 6.1948C5.80385 6.45296 5.6781 6.83099 5.68725 7.32886C5.69639 7.82444 5.8313 8.20706 6.09423 8.47214C6.12853 8.50902 6.21084 8.53668 6.33659 8.56203C6.46234 8.58739 6.54693 8.61966 6.58809 8.66115L6.74128 8.81558L6.61552 8.94236C6.47834 9.08066 6.18568 8.92853 5.74441 8.48136C5.3923 8.12639 5.23455 7.70688 5.27114 7.22514C5.30772 6.74109 5.51578 6.30775 5.89761 5.92282C6.23142 5.58629 6.65212 5.42494 7.15741 5.43877C7.6627 5.4549 8.06281 5.61164 8.36233 5.9136C8.41034 5.962 8.48122 6.08186 8.57954 6.27548H8.58182ZM7.90963 7.13524C7.69928 7.09375 7.53923 7.12833 7.42491 7.24358C7.32888 7.34039 7.27858 7.49482 7.27629 7.70918C7.27172 7.92355 7.33117 8.09181 7.45006 8.21167C7.60096 8.3638 7.7793 8.456 7.98279 8.49749C8.18857 8.53437 8.34633 8.49979 8.45379 8.39146C8.59097 8.25316 8.66642 8.10103 8.67785 7.93277C8.68928 7.7645 8.63669 7.61929 8.51551 7.49712C8.31888 7.29889 8.1154 7.17904 7.90734 7.13524H7.90963ZM9.21743 8.61735C9.04367 8.58739 8.90191 8.62887 8.78759 8.74412C8.59553 8.93774 8.61384 9.1475 8.84248 9.378C9.11227 9.64998 9.36834 9.66151 9.61299 9.41257C9.81419 9.20973 9.84619 9.03455 9.70215 8.88934C9.55124 8.73721 9.3912 8.64962 9.21743 8.61735Z" fill="#4B3205"/>
<path d="M35.8726 2.17029C34.1349 3.63166 30.6962 5.22671 27.8405 5.22671C25.4352 5.22671 21.9736 4.26322 20.1605 3.36428C18.3474 2.46764 16.436 1.10539 14.4903 1.10539C12.5446 1.10539 11.4654 1.69086 11.0698 1.95593C11.9158 3.89904 11.1544 6.15562 10.0821 6.9785C9.68429 7.28506 9.54481 7.08683 9.77574 6.72034C10.4342 5.72459 11.2916 3.3297 10.5005 1.60096C13.402 0.270981 16.3674 0.404672 19.8633 1.86834C23.3569 3.3297 26.0617 3.79531 28.1697 3.79531C30.2778 3.79531 33.4444 3.15222 35.6851 1.86834C35.9046 1.73465 36.1584 1.94671 35.8726 2.16799V2.17029Z" fill="#4B3205"/>
<path d="M2.44133 35.8716C3.8909 34.1221 5.47307 30.6531 5.47307 27.7741C5.47307 25.347 4.51737 21.8595 3.62568 20.0317C2.73628 18.2038 1.38502 16.2768 1.38502 14.3153C1.38502 12.3537 1.96575 11.2658 2.22869 10.867C4.15611 11.7199 6.39221 10.9523 7.21074 9.87127C7.51254 9.4702 7.3182 9.3296 6.95466 9.5624C5.96694 10.2262 3.59138 11.0906 1.87888 10.2931C0.561917 13.2181 0.692247 16.21 2.14182 19.732C3.59139 23.254 4.05324 25.9808 4.05324 28.106C4.05324 30.2312 3.41534 33.4237 2.14182 35.6825C2.00921 35.9038 2.21955 36.1597 2.43905 35.8716H2.44133Z" fill="#4B3205"/>
</svg>
