<svg width="24" height="24" viewBox="0 0 24 24" fill="none" xmlns="http://www.w3.org/2000/svg">
<g clip-path="url(#clip0_427_8668)">
<path d="M0.508412 11.8564C0.507853 13.8728 1.03474 15.8418 2.0366 17.5772L0.412598 23.5067L6.48069 21.9156C8.15904 22.8293 10.0395 23.3081 11.9505 23.3082H11.9555C18.2639 23.3082 23.399 18.1749 23.4017 11.8654C23.4029 8.808 22.2133 5.93302 20.052 3.77005C17.8911 1.60726 15.0172 0.415534 11.955 0.414139C5.6459 0.414139 0.511109 5.54716 0.508505 11.8564" fill="url(#paint0_linear_427_8668)"/>
<path d="M0.0995349 11.8527C0.0988837 13.9417 0.644651 15.981 1.68223 17.7786L0 23.9207L6.28567 22.2726C8.01758 23.2168 9.96754 23.7147 11.9517 23.7154H11.9568C18.4915 23.7154 23.8112 18.3975 23.814 11.8621C23.8151 8.69488 22.5827 5.71656 20.3442 3.47609C18.1054 1.23591 15.1287 0.00130233 11.9568 0C5.42102 0 0.10214 5.31721 0.0995349 11.8527ZM3.84279 17.469L3.60809 17.0965C2.62149 15.5277 2.10074 13.7149 2.10149 11.8534C2.10363 6.4213 6.52447 2.00186 11.9606 2.00186C14.5931 2.00298 17.0672 3.02921 18.928 4.89116C20.7887 6.7533 21.8127 9.22865 21.812 11.8614C21.8096 17.2935 17.3887 21.7135 11.9568 21.7135H11.9529C10.1843 21.7126 8.44967 21.2376 6.93693 20.34L6.57693 20.1265L2.84688 21.1045L3.84279 17.4689V17.469Z" fill="url(#paint1_linear_427_8668)"/>
<path d="M8.99352 6.89749C8.77157 6.40419 8.53799 6.39424 8.32692 6.38559C8.15408 6.37814 7.9565 6.3787 7.75911 6.3787C7.56152 6.3787 7.2405 6.45303 6.96915 6.74931C6.69752 7.04587 5.93213 7.76252 5.93213 9.2201C5.93213 10.6778 6.9938 12.0864 7.1418 12.2843C7.28999 12.4818 9.19138 15.5687 12.2027 16.7562C14.7054 17.7431 15.2147 17.5468 15.7579 17.4973C16.3012 17.448 17.5108 16.7808 17.7576 16.089C18.0046 15.3973 18.0046 14.8044 17.9305 14.6805C17.8565 14.557 17.6589 14.4829 17.3626 14.3348C17.0663 14.1866 15.6097 13.4699 15.3382 13.371C15.0665 13.2722 14.8691 13.2229 14.6715 13.5195C14.4739 13.8157 13.9065 14.4829 13.7336 14.6805C13.5609 14.8785 13.3879 14.9032 13.0918 14.755C12.7953 14.6063 11.8412 14.2939 10.7092 13.2847C9.82841 12.4994 9.2338 11.5296 9.06097 11.2329C8.88813 10.9367 9.04245 10.7762 9.19101 10.6286C9.32413 10.4958 9.48738 10.2826 9.63566 10.1097C9.78338 9.93666 9.83269 9.81321 9.93148 9.61563C10.0304 9.41786 9.98087 9.24484 9.90692 9.09666C9.83269 8.94847 9.25697 7.48326 8.99352 6.89749Z" fill="white"/>
</g>
<defs>
<linearGradient id="paint0_linear_427_8668" x1="1149.87" y1="2309.67" x2="1149.87" y2="0.414139" gradientUnits="userSpaceOnUse">
<stop stop-color="#1FAF38"/>
<stop offset="1" stop-color="#60D669"/>
</linearGradient>
<linearGradient id="paint1_linear_427_8668" x1="1190.7" y1="2392.07" x2="1190.7" y2="0" gradientUnits="userSpaceOnUse">
<stop stop-color="#F9F9F9"/>
<stop offset="1" stop-color="white"/>
</linearGradient>
<clipPath id="clip0_427_8668">
<rect width="23.814" height="24" fill="white"/>
</clipPath>
</defs>
</svg>
