<svg width="36" height="36" viewBox="0 0 36 36" fill="none" xmlns="http://www.w3.org/2000/svg">
<g clip-path="url(#clip0_7_2834)">
<path d="M34.6403 14.8698L19.9562 14.8691C19.3078 14.8691 18.7822 15.3947 18.7822 16.0431V20.734C18.7822 21.3823 19.3078 21.9079 19.9562 21.9079H28.2253C27.3199 24.2578 25.6298 26.2258 23.4736 27.4762L26.9996 33.58C32.6557 30.3089 35.9996 24.5693 35.9996 18.1443C35.9996 17.2295 35.9321 16.5755 35.7973 15.8391C35.6948 15.2796 35.2091 14.8698 34.6403 14.8698Z" fill="#167EE6"/>
<path d="M18.0004 28.9565C13.9536 28.9565 10.4209 26.7455 8.52347 23.4736L2.41992 26.9917C5.52598 32.3749 11.3446 36 18.0004 36C21.2655 36 24.3464 35.1209 27.0004 33.5889V33.5805L23.4744 27.4767C21.8616 28.4121 19.9952 28.9565 18.0004 28.9565Z" fill="#12B347"/>
<path d="M27 33.5888V33.5804L23.474 27.4766C21.8612 28.4119 19.995 28.9564 18 28.9564V35.9999C21.2651 35.9999 24.3461 35.1208 27 33.5888Z" fill="#0F993E"/>
<path d="M7.04348 18.0004C7.04348 16.0057 7.58784 14.1396 8.52307 12.5268L2.41952 9.00879C0.879047 11.6544 0 14.727 0 18.0004C0 21.2739 0.879047 24.3464 2.41952 26.9921L8.52307 23.474C7.58784 21.8613 7.04348 19.9951 7.04348 18.0004Z" fill="#FFD500"/>
<path d="M18.0004 7.04348C20.6393 7.04348 23.0632 7.98117 24.9566 9.54091C25.4236 9.92566 26.1025 9.89789 26.5304 9.47004L29.854 6.14637C30.3395 5.66093 30.3049 4.86633 29.7863 4.41647C26.6142 1.66451 22.4868 0 18.0004 0C11.3446 0 5.52598 3.6251 2.41992 9.00837L8.52347 12.5264C10.4209 9.25453 13.9536 7.04348 18.0004 7.04348Z" fill="#FF4B26"/>
<path d="M24.9562 9.54091C25.4232 9.92566 26.1022 9.89789 26.53 9.47004L29.8536 6.14637C30.339 5.66093 30.3044 4.86633 29.7859 4.41647C26.6138 1.66444 22.4864 0 18 0V7.04348C20.6388 7.04348 23.0629 7.98117 24.9562 9.54091Z" fill="#D93F21"/>
</g>
<defs>
<clipPath id="clip0_7_2834">
<rect width="36" height="36" fill="white"/>
</clipPath>
</defs>
</svg>
