<svg width="56" height="56" viewBox="0 0 56 56" fill="none" xmlns="http://www.w3.org/2000/svg">
<mask id="path-1-inside-1_602_1228" fill="white">
<path d="M0 28C0 12.536 12.536 0 28 0C43.464 0 56 12.536 56 28C56 43.464 43.464 56 28 56C12.536 56 0 43.464 0 28Z"/>
</mask>
<path d="M0 28C0 12.536 12.536 0 28 0C43.464 0 56 12.536 56 28C56 43.464 43.464 56 28 56C12.536 56 0 43.464 0 28Z" fill="#E49C28" fill-opacity="0.05"/>
<path d="M-1 27.5C-1 11.7599 11.7599 -1 27.5 -1C43.2401 -1 56 11.7599 56 27.5V28C56 13.0883 43.464 1 28 1C13.0883 1 1 13.0883 1 28L-1 27.5ZM56 56H0H56ZM27.5 56C11.7599 56 -1 43.2401 -1 27.5C-1 11.7599 11.7599 -1 27.5 -1L28 1C13.0883 1 1 13.0883 1 28C1 43.464 13.0883 56 28 56H27.5ZM56 0V56V0Z" fill="#E49C28" mask="url(#path-1-inside-1_602_1228)"/>
<path fill-rule="evenodd" clip-rule="evenodd" d="M32.5 16V40H16L16 16L32.5 16Z" stroke="#E49C28" stroke-width="2" stroke-linecap="round" stroke-linejoin="round"/>
<path d="M28.75 28H42.25" stroke="#E49C28" stroke-width="2" stroke-linecap="round"/>
<path d="M37.75 32.5L42.25 28L37.75 23.5" stroke="#E49C28" stroke-width="2" stroke-linecap="round"/>
</svg>
