<svg width="39" height="38" viewBox="0 0 39 38" fill="none" xmlns="http://www.w3.org/2000/svg">
<rect x="1.12186" y="0.527129" width="37.0251" height="37.0251" rx="18.5125" stroke="#E49C28" stroke-width="0.896055"/>
<path d="M22.9674 15.7061L16.3008 18.2061" stroke="#E49C28" stroke-width="1.44243" stroke-linecap="round"/>
<path d="M22.9674 22.373L16.3008 19.873" stroke="#E49C28" stroke-width="1.44243" stroke-linecap="round"/>
<path fill-rule="evenodd" clip-rule="evenodd" d="M14.6344 20.7064C15.5549 20.7064 16.3011 19.9602 16.3011 19.0397C16.3011 18.1192 15.5549 17.373 14.6344 17.373C13.714 17.373 12.9678 18.1192 12.9678 19.0397C12.9678 19.9602 13.714 20.7064 14.6344 20.7064Z" stroke="#E49C28" stroke-width="1.44243"/>
<path fill-rule="evenodd" clip-rule="evenodd" d="M24.6344 16.5404C25.5549 16.5404 26.3011 15.7942 26.3011 14.8737C26.3011 13.9532 25.5549 13.207 24.6344 13.207C23.714 13.207 22.9678 13.9532 22.9678 14.8737C22.9678 15.7942 23.714 16.5404 24.6344 16.5404Z" stroke="#E49C28" stroke-width="1.44243"/>
<path fill-rule="evenodd" clip-rule="evenodd" d="M24.6344 24.8734C25.5549 24.8734 26.3011 24.1272 26.3011 23.2067C26.3011 22.2862 25.5549 21.54 24.6344 21.54C23.714 21.54 22.9678 22.2862 22.9678 23.2067C22.9678 24.1272 23.714 24.8734 24.6344 24.8734Z" stroke="#E49C28" stroke-width="1.44243"/>
</svg>
